<svg id="Capa_1" data-name="Capa 1" xmlns="http://www.w3.org/2000/svg" xmlns:xlink="http://www.w3.org/1999/xlink" viewBox="0 0 891 369.52"><defs><style>.cls-1,.cls-10,.cls-11,.cls-13,.cls-6,.cls-7,.cls-8{fill:none;}.cls-2{clip-path:url(#clip-path);}.cls-3{fill:#f24136;}.cls-4{fill:#4155ff;}.cls-5{fill:#85bf6b;}.cls-6{stroke:#f24136;}.cls-10,.cls-11,.cls-6,.cls-7{stroke-miterlimit:10;}.cls-11,.cls-13,.cls-6{stroke-width:2px;}.cls-13,.cls-6{stroke-dasharray:3 3;}.cls-7,.cls-8{stroke:#000;}.cls-9{fill:#e6e6e6;opacity:0.62;isolation:isolate;}.cls-10{stroke:#4155ff;}.cls-11{stroke:#85bf6b;}.cls-12{fill:#afafaf;}.cls-13{stroke:#d87d3a;}.cls-14{fill:#d87d3a;}</style><clipPath id="clip-path"><rect class="cls-1" x="61.5" y="51.38" width="766" height="259"/></clipPath></defs><title>esquemas</title><rect class="cls-1" x="0.39" y="0.12" width="891" height="369.52"/><g class="cls-2"><g id="iPhone_6_7_8_3" data-name="iPhone 6 7 8 3"><g id="REQUESTED"><path d="M82.38,159.18l-1.76-2.53H78.69v2.53H76.58v-9.1H80.5c2.45,0,4,1.3,4,3.3a3,3,0,0,1-1.87,2.87l2,2.92Zm-2-7.38H78.69V155H80.4c1.29,0,1.94-.6,1.94-1.58s-.65-1.59-1.94-1.59Z"/><path d="M93.18,157.49v1.69h-7v-9.1h6.88v1.69H88.23v2H92.5v1.61H88.23v2.1Z"/><path d="M104.67,160.16a3.07,3.07,0,0,1-2.46,1.12c-1.35,0-2.3-.5-3.7-2a4.64,4.64,0,0,1-4.25-4.67A4.69,4.69,0,0,1,99,149.9h.31a4.7,4.7,0,0,1,5,4.41,2.81,2.81,0,0,1,0,.29,4.58,4.58,0,0,1-3.25,4.45,1.69,1.69,0,0,0,1.28.64,2,2,0,0,0,1.49-.68Zm-5.43-2.61a2.92,2.92,0,1,0-2.85-3v.07A2.78,2.78,0,0,0,99,157.55Z"/><path d="M105.72,155.18v-5.1h2.11v5c0,1.73.75,2.45,2,2.45s2-.72,2-2.45v-5h2.08v5.1c0,2.68-1.54,4.16-4.12,4.16S105.72,157.86,105.72,155.18Z"/><path d="M123.09,157.49v1.69h-7v-9.1H123v1.69h-4.82v2h4.23v1.61h-4.23v2.1Z"/><path d="M124.05,158.29l.72-1.59a5.31,5.31,0,0,0,3,1c1.25,0,1.76-.42,1.76-1,0-1.71-5.29-.54-5.29-3.92,0-1.55,1.24-2.83,3.83-2.83a6.12,6.12,0,0,1,3.16.8l-.65,1.6a5.17,5.17,0,0,0-2.52-.71c-1.25,0-1.73.47-1.73,1,0,1.67,5.29.52,5.29,3.86,0,1.52-1.26,2.82-3.86,2.82A6.51,6.51,0,0,1,124.05,158.29Z"/><path d="M134.82,151.8h-2.91v-1.72h7.93v1.72h-2.92v7.38h-2.1Z"/><path d="M148,157.49v1.69h-7v-9.1h6.87v1.69h-4.82v2h4.23v1.61h-4.23v2.1Z"/><path d="M149.69,150.08h4.13c3,0,5,1.8,5,4.55s-2,4.55-5,4.55h-4.13Zm4,7.37a2.82,2.82,0,0,0,0-5.64H151.8v5.64Z"/></g><g id="EXPIRATION"><path class="cls-3" d="M383.75,284.44v2.21H374.5v-11.9h9V277h-6.26v2.59h5.53v2.14h-5.53v2.75Z"/><path class="cls-3" d="M393.32,286.65l-2.82-4.13-2.82,4.13H384.5l4.41-6-4.18-5.85h3.12l2.74,3.86,2.69-3.86h3l-4.15,5.75,4.44,6.15Z"/><path class="cls-3" d="M407.91,279.07c0,2.65-2,4.3-5.17,4.3h-2.4v3.28h-2.75v-11.9h5.15C405.92,274.75,407.91,276.38,407.91,279.07Zm-2.79,0c0-1.31-.85-2.07-2.53-2.07h-2.25v4.13h2.25C404.27,281.13,405.12,280.38,405.12,279.07Z"/><path class="cls-3" d="M409.86,274.75h2.76v11.9h-2.76Z"/><path class="cls-3" d="M423,286.65l-2.3-3.31h-2.53v3.31h-2.75v-11.9h5.15c3.18,0,5.17,1.65,5.17,4.32a3.89,3.89,0,0,1-2.45,3.76l2.67,3.82ZM420.44,277h-2.25v4.15h2.25c1.68,0,2.53-.79,2.53-2.08s-.85-2.07-2.53-2.07Z"/><path class="cls-3" d="M435.77,284.1h-5.53l-1.05,2.55h-2.82l5.3-11.9h2.72l5.32,11.9h-2.89ZM434.9,282,433,277.46,431.13,282Z"/><path class="cls-3" d="M442.82,277H439v-2.25h10.37V277h-3.81v9.65h-2.76Z"/><path class="cls-3" d="M450.87,274.75h2.75v11.9h-2.75Z"/><path class="cls-3" d="M455.69,280.7a6.16,6.16,0,0,1,6.16-6.16h.35c3.74,0,6.51,2.6,6.51,6.15a6.52,6.52,0,0,1-13,0Zm10.24,0a3.73,3.73,0,1,0-3.73,3.81,3.62,3.62,0,0,0,3.73-3.52A2.81,2.81,0,0,0,465.93,280.7Z"/><path class="cls-3" d="M481.7,274.75v11.9h-2.26l-5.94-7.22v7.22h-2.72v-11.9h2.28L479,282v-7.23Z"/></g><g id="ON_GOING" data-name="ON GOING"><path class="cls-4" d="M337.19,72.83a5,5,0,1,1,5.28,4.7h-.28a4.7,4.7,0,0,1-5-4.41C337.19,73,337.19,72.93,337.19,72.83Zm7.82,0a2.85,2.85,0,0,0-5.69-.34,1.93,1.93,0,0,0,0,.34,2.85,2.85,0,0,0,5.69.34A1.93,1.93,0,0,0,345,72.83Z"/><path class="cls-4" d="M357.08,68.28v9.1h-1.73l-4.54-5.53v5.53h-2.08v-9.1h1.77L355,73.8V68.28Z"/><path class="cls-4" d="M369.06,72.69H371v3.69a6.3,6.3,0,0,1-3.68,1.16,4.72,4.72,0,1,1-.61-9.42c.2,0,.41,0,.61,0a4.83,4.83,0,0,1,3.81,1.58l-1.36,1.24a3.08,3.08,0,0,0-2.35-1,2.81,2.81,0,0,0-3,2.59v.32a2.8,2.8,0,0,0,2.7,2.91h.3a3.3,3.3,0,0,0,1.63-.39Z"/><path class="cls-4" d="M372.36,72.83a5,5,0,1,1,5.28,4.7h-.28a4.72,4.72,0,0,1-5-4.43A2.62,2.62,0,0,1,372.36,72.83Zm7.83,0a2.85,2.85,0,0,0-5.69-.34,1.93,1.93,0,0,0,0,.34,2.85,2.85,0,0,0,5.69.34A1.93,1.93,0,0,0,380.19,72.83Z"/><path class="cls-4" d="M383.91,68.28H386v9.1h-2.1Z"/><path class="cls-4" d="M396.5,68.28v9.1h-1.73l-4.54-5.53v5.53h-2.08v-9.1h1.75l4.52,5.52V68.28Z"/><path class="cls-4" d="M404.83,72.69h1.92v3.69a6.3,6.3,0,0,1-3.68,1.16,4.72,4.72,0,1,1-.61-9.42c.2,0,.41,0,.61,0a4.83,4.83,0,0,1,3.81,1.58l-1.35,1.24a3.1,3.1,0,0,0-2.36-1,2.81,2.81,0,0,0-3,2.59v.32a2.81,2.81,0,0,0,2.7,2.91h.25a3.34,3.34,0,0,0,1.64-.39Z"/></g><g id="Installments"><path class="cls-5" d="M435.92,174.15H438v9.1h-2.1Z"/><path class="cls-5" d="M447.19,179.25v4h-2v-3.69c0-1.13-.52-1.65-1.42-1.65a1.66,1.66,0,0,0-1.67,1.88v3.46h-2v-7H442v.82a3.11,3.11,0,0,1,2.32-.93C445.94,176.15,447.19,177.12,447.19,179.25Z"/><path class="cls-5" d="M448.34,182.6l.68-1.45a4.73,4.73,0,0,0,2.43.67c.94,0,1.29-.24,1.29-.63,0-1.15-4.23,0-4.23-2.77,0-1.33,1.2-2.27,3.24-2.27a5.71,5.71,0,0,1,2.69.62l-.67,1.44a4,4,0,0,0-2-.52c-.91,0-1.3.28-1.3.65,0,1.19,4.23,0,4.23,2.79,0,1.3-1.21,2.23-3.31,2.23A6,6,0,0,1,448.34,182.6Z"/><path class="cls-5" d="M460.43,182.91a2.91,2.91,0,0,1-1.65.45,2.31,2.31,0,0,1-2.6-2,2.34,2.34,0,0,1,0-.53V178h-1.08v-1.59h1.08v-1.7h2v1.7h1.74v1.56H458.2v2.85a.81.81,0,0,0,.69.91.55.55,0,0,0,.18,0,1.42,1.42,0,0,0,.82-.25Z"/><path class="cls-5" d="M467.77,179.26v4h-1.9v-.88a2.3,2.3,0,0,1-2.13,1c-1.64,0-2.62-.91-2.62-2.12s.88-2.1,3-2.1h1.61c0-.87-.52-1.37-1.61-1.37a3.34,3.34,0,0,0-2,.65l-.73-1.42a5.39,5.39,0,0,1,3-.85C466.5,176.15,467.77,177.14,467.77,179.26Zm-2,1.78v-.66h-1.39c-1,0-1.25.35-1.25.82s.43.84,1.14.84a1.5,1.5,0,0,0,1.47-1Z"/><path class="cls-5" d="M469.6,173.61h2v9.64h-2Z"/><path class="cls-5" d="M473.5,173.61h2v9.64h-2Z"/><path class="cls-5" d="M489.24,179.25v4h-2v-3.69c0-1.13-.5-1.65-1.32-1.65s-1.55.58-1.55,1.83v3.51h-2v-3.69c0-1.13-.48-1.65-1.32-1.65s-1.54.58-1.54,1.83v3.51h-2v-7h1.93v.8a2.86,2.86,0,0,1,2.2-.91,2.6,2.6,0,0,1,2.3,1.15,3.15,3.15,0,0,1,2.52-1.15C488.05,176.15,489.24,177.12,489.24,179.25Z"/><path class="cls-5" d="M498,180.38h-5.29a1.87,1.87,0,0,0,2,1.4,2.4,2.4,0,0,0,1.76-.67l1.08,1.17a3.69,3.69,0,0,1-2.89,1.13c-2.42,0-4-1.52-4-3.6a3.56,3.56,0,0,1,3.51-3.61h.22a3.46,3.46,0,0,1,3.64,3.27,2.16,2.16,0,0,1,0,.36A5.07,5.07,0,0,1,498,180.38Zm-5.31-1.19h3.44a1.75,1.75,0,0,0-3.44,0Z"/><path class="cls-5" d="M506.5,179.25v4h-2v-3.69c0-1.13-.52-1.65-1.42-1.65a1.67,1.67,0,0,0-1.68,1.88v3.46h-2v-7h1.94v.82a3.07,3.07,0,0,1,2.31-.93C505.25,176.15,506.5,177.12,506.5,179.25Z"/><path class="cls-5" d="M512.84,182.91a2.91,2.91,0,0,1-1.65.45,2.31,2.31,0,0,1-2.61-2,2.44,2.44,0,0,1,0-.54V178H507.5v-1.59h1.08v-1.7h2v1.7h1.74v1.56H510.6v2.85a.81.81,0,0,0,.69.91.55.55,0,0,0,.18,0,1.42,1.42,0,0,0,.82-.25Z"/><path class="cls-5" d="M513.3,182.6l.68-1.45a4.83,4.83,0,0,0,2.43.67c.94,0,1.29-.24,1.29-.63,0-1.15-4.23,0-4.23-2.77,0-1.33,1.2-2.27,3.24-2.27a5.71,5.71,0,0,1,2.69.62l-.67,1.44a4,4,0,0,0-2-.52c-.91,0-1.3.28-1.3.65,0,1.19,4.23,0,4.23,2.79,0,1.3-1.21,2.23-3.31,2.23A6,6,0,0,1,513.3,182.6Z"/></g><g id="FINAL_TIME" data-name="FINAL TIME"><path d="M656.12,176.13v2.4h4.22v1.69h-4.22v3.32H654v-9.1h6.87v1.69Z"/><path d="M662.32,174.44h2.11v9.1h-2.11Z"/><path d="M674.93,174.44v9.1h-1.72L668.67,178v5.53h-2.08v-9.1h1.74l4.52,5.52v-5.52Z"/><path d="M683.08,181.59h-4.22l-.81,1.95H675.9l4.05-9.1H682l4.07,9.1h-2.21Zm-.66-1.6L681,176.51,679.5,180Z"/><path d="M687.05,174.44h2.11v7.38h4.56v1.72h-6.67Z"/><path d="M700.5,176.16h-2.91v-1.72h7.91v1.72h-2.91v7.38H700.5Z"/><path d="M706.61,174.44h2.11v9.1h-2.11Z"/><path d="M719.16,183.54v-5.46l-2.66,4.5h-1l-2.67-4.38v5.34h-2v-9.1h1.74l3.41,5.65,3.35-5.65h1.73v9.1Z"/><path d="M730.34,181.85v1.69h-7.05v-9.1h6.88v1.69h-4.78v2h4.22v1.63h-4.22v2.11Z"/></g><line id="Line_678" data-name="Line 678" class="cls-6" x1="218.42" y1="255.72" x2="428" y2="255.72"/><line id="Line_680" data-name="Line 680" class="cls-7" x1="218.42" y1="157.02" x2="372.29" y2="157.02"/><g id="_1" data-name=" 1"><path d="M475.07,94.86v10.52h-2.43V96.81H470.5v-2Z"/></g><g id="_2" data-name=" 2"><path d="M590.84,103.38v2h-7.93v-1.6L587,100c.93-.89,1.09-1.43,1.09-1.94,0-.82-.57-1.3-1.68-1.3a2.55,2.55,0,0,0-2.17,1l-1.77-1.14a4.85,4.85,0,0,1,4.17-2c2.34,0,3.9,1.2,3.9,3.1a4.17,4.17,0,0,1-1.76,3.32l-2.41,2.38Z"/></g><g id="_3" data-name=" 3"><path d="M694.84,102.15c0,1.77-1.36,3.39-4.35,3.39a7.23,7.23,0,0,1-4-1.16l.94-1.86a5.14,5.14,0,0,0,3,1c1.22,0,2-.5,2-1.35s-.59-1.29-2-1.29h-1.11V99.25l2.17-2.44H687v-2h7.35v1.57L692,99.08A3,3,0,0,1,694.84,102.15Z"/></g><circle id="Ellipse_109" data-name="Ellipse 109" class="cls-7" cx="472.54" cy="100.13" r="15.23"/><circle id="Ellipse_110" data-name="Ellipse 110" class="cls-7" cx="586.18" cy="100.13" r="15.23"/><circle id="Ellipse_111" data-name="Ellipse 111" class="cls-7" cx="690.27" cy="100.13" r="15.23"/><path id="Path_233" data-name="Path 233" class="cls-8" d="M120.72,183.27h90.39"/><path id="Path_232" data-name="Path 232" class="cls-7" d="M218.42,157.43a7.35,7.35,0,0,0-7.31,7.31v83.64a7.33,7.33,0,0,0,7.31,7.31"/><rect id="Rectangle_950" data-name="Rectangle 950" class="cls-9" x="372.29" y="134.43" width="318.29" height="22.59"/><line id="Line_687" data-name="Line 687" class="cls-10" x1="372.29" y1="157.02" x2="687" y2="157.02"/><line id="Line_688" data-name="Line 688" class="cls-11" x1="472.89" y1="125.54" x2="472.89" y2="157.03"/><line id="Line_689" data-name="Line 689" class="cls-11" x1="586.79" y1="125.54" x2="586.79" y2="157.03"/><line id="Line_690" data-name="Line 690" class="cls-11" x1="691.58" y1="125.54" x2="691.58" y2="157.03"/><line id="Line_691" data-name="Line 691" class="cls-10" x1="371.77" y1="98.32" x2="371.77" y2="157.03"/><line id="Line_692" data-name="Line 692" class="cls-8" x1="364.93" y1="151.01" x2="371.77" y2="157.85"/><line id="Line_693" data-name="Line 693" class="cls-8" x1="371.77" y1="156.71" x2="364.93" y2="163.55"/><g id="Rectangle_1043" data-name="Rectangle 1043"><rect x="111.26" y="178.28" width="10.26" height="10.26" rx="2" transform="translate(-95.6 136.02) rotate(-45)"/><rect class="cls-8" x="111.76" y="178.78" width="9.26" height="9.26" rx="1.5" transform="translate(-95.6 136.02) rotate(-45)"/></g><rect id="Rectangle_1044" data-name="Rectangle 1044" class="cls-4" x="366.48" y="93.91" width="10.26" height="10.26" rx="2" transform="translate(38.81 291.78) rotate(-45)"/><g id="Rectangle_1045" data-name="Rectangle 1045"><rect class="cls-12" x="686.49" y="152.06" width="10.26" height="10.26" rx="2" transform="translate(91.42 535.09) rotate(-45)"/><rect class="cls-8" x="686.99" y="152.56" width="9.26" height="9.26" rx="1.5" transform="translate(91.42 535.09) rotate(-45)"/></g><rect id="Rectangle_1046" data-name="Rectangle 1046" class="cls-3" x="422.5" y="250.09" width="10.26" height="10.26" rx="2" transform="translate(-55.22 377.13) rotate(-45)"/><path id="Path_250" data-name="Path 250" class="cls-13" d="M211.63,210.12H769.5"/><rect id="Rectangle_1047" data-name="Rectangle 1047" class="cls-14" x="764.34" y="204.5" width="10.26" height="10.26" rx="2" transform="translate(77.14 605.5) rotate(-45)"/><g id="DUE_TIME" data-name="DUE TIME"><path class="cls-14" d="M724.86,228h5.41c3.89,0,6.56,2.35,6.56,5.95s-2.67,6-6.56,6h-5.41Zm5.27,9.64c2.36,0,3.91-1.41,3.91-3.69s-1.55-3.69-3.91-3.69h-2.51v7.38Z"/><path class="cls-14" d="M738.8,234.7V228h2.76v6.56c0,2.26,1,3.2,2.65,3.2s2.65-.94,2.65-3.2V228h2.72v6.67c0,3.5-2,5.43-5.39,5.43S738.8,238.2,738.8,234.7Z"/><path class="cls-14" d="M761.5,237.72v2.21h-9.2V228h9v2.21h-6.25v2.59h5.52V235h-5.52v2.75Z"/><path class="cls-14" d="M771,230.28h-3.81V228H777.5v2.25h-3.8v9.65h-2.76Z"/><path class="cls-14" d="M779,228h2.76v11.9H779Z"/><path class="cls-14" d="M795.43,239.93v-7.14l-3.5,5.88h-1.24l-3.49-5.73v7h-2.6V228h2.28l4.45,7.4,4.39-7.4H798v11.9Z"/><path class="cls-14" d="M810.05,237.72v2.21h-9.22V228h9v2.21h-6.26v2.59h5.52V235h-5.52v2.75Z"/></g></g></g></svg>